<?xml version="1.0" encoding="UTF-8" standalone="no"?>
<svg
   xmlns:dc="http://purl.org/dc/elements/1.1/"
   xmlns:cc="http://creativecommons.org/ns#"
   xmlns:rdf="http://www.w3.org/1999/02/22-rdf-syntax-ns#"
   xmlns:svg="http://www.w3.org/2000/svg"
   xmlns="http://www.w3.org/2000/svg"
   xmlns:sodipodi="http://sodipodi.sourceforge.net/DTD/sodipodi-0.dtd"
   xmlns:inkscape="http://www.inkscape.org/namespaces/inkscape"
   width="64"
   height="64"
   viewBox="0 0 16.933333 16.933333"
   version="1.1"
   id="svg8"
   inkscape:version="1.0.2 (e86c870879, 2021-01-15)"
   sodipodi:docname="circle_outline.svg">
  <defs
     id="defs2" />
  <sodipodi:namedview
     id="base"
     pagecolor="#ffffff"
     bordercolor="#666666"
     borderopacity="1.0"
     inkscape:pageopacity="0.0"
     inkscape:pageshadow="2"
     inkscape:zoom="11.2"
     inkscape:cx="34.65467"
     inkscape:cy="28.75756"
     inkscape:document-units="mm"
     inkscape:current-layer="layer1"
     inkscape:document-rotation="0"
     showgrid="false"
     units="px"
     inkscape:window-width="1920"
     inkscape:window-height="1005"
     inkscape:window-x="0"
     inkscape:window-y="0"
     inkscape:window-maximized="1" />
  <metadata
     id="metadata5">
    <rdf:RDF>
      <cc:Work
         rdf:about="">
        <dc:format>image/svg+xml</dc:format>
        <dc:type
           rdf:resource="http://purl.org/dc/dcmitype/StillImage" />
        <dc:title></dc:title>
      </cc:Work>
    </rdf:RDF>
  </metadata>
  <g
     inkscape:label="Layer 1"
     inkscape:groupmode="layer"
     id="layer1">
    <path
       id="path883"
       style="opacity:0.991;fill:#b3b3b1;fill-opacity:1;stroke:none;stroke-width:0.603067"
       d="M 8.4666667,0.69258226 A 7.7085565,7.7738953 0 0 0 0.75812701,8.4666669 7.7085565,7.7738953 0 0 0 8.4666667,16.240751 7.7085565,7.7738953 0 0 0 16.175206,8.4666669 7.7085565,7.7738953 0 0 0 8.4666667,0.69258226 Z m 0,1.18560154 a 6.5328591,6.5882322 0 0 1 0.1251813,0.00148 6.5328591,6.5882322 0 0 1 0.1310381,0.0037 6.5328591,6.5882322 0 0 1 0.1317697,0.00666 6.5328591,6.5882322 0 0 1 0.1310381,0.00962 6.5328591,6.5882322 0 0 1 0.1317697,0.011834 6.5328591,6.5882322 0 0 1 0.1303057,0.014053 6.5328591,6.5882322 0 0 1 0.1310381,0.017751 6.5328591,6.5882322 0 0 1 0.1295737,0.01923 6.5328591,6.5882322 0 0 1 0.1303057,0.022928 6.5328591,6.5882322 0 0 1 0.1288417,0.025147 6.5328591,6.5882322 0 0 1 0.1288418,0.027366 6.5328591,6.5882322 0 0 1 0.1281097,0.030324 6.5328591,6.5882322 0 0 1 0.127377,0.033283 6.5328591,6.5882322 0 0 1 0.127378,0.035502 6.5328591,6.5882322 0 0 1 0.125913,0.03846 6.5328591,6.5882322 0 0 1 0.125181,0.040679 6.5328591,6.5882322 0 0 1 0.12445,0.042898 6.5328591,6.5882322 0 0 1 0.123717,0.045856 6.5328591,6.5882322 0 0 1 0.122254,0.048075 6.5328591,6.5882322 0 0 1 0.122252,0.051033 6.5328591,6.5882322 0 0 1 0.120058,0.052513 6.5328591,6.5882322 0 0 1 0.120057,0.056211 6.5328591,6.5882322 0 0 1 0.117861,0.05769 6.5328591,6.5882322 0 0 1 0.117861,0.060648 6.5328591,6.5882322 0 0 1 0.115664,0.062867 6.5328591,6.5882322 0 0 1 0.114933,0.065086 6.5328591,6.5882322 0 0 1 0.113468,0.067305 6.5328591,6.5882322 0 0 1 0.112005,0.069524 6.5328591,6.5882322 0 0 1 0.11054,0.072482 6.5328591,6.5882322 0 0 1 0.109076,0.073961 6.5328591,6.5882322 0 0 1 0.107613,0.07618 6.5328591,6.5882322 0 0 1 0.106148,0.079139 6.5328591,6.5882322 0 0 1 0.103951,0.080618 6.5328591,6.5882322 0 0 1 0.10322,0.082837 6.5328591,6.5882322 0 0 1 0.101023,0.085056 6.5328591,6.5882322 0 0 1 0.09956,0.086535 6.5328591,6.5882322 0 0 1 0.09736,0.089493 6.5328591,6.5882322 0 0 1 0.0959,0.090973 6.5328591,6.5882322 0 0 1 0.09444,0.092452 6.5328591,6.5882322 0 0 1 0.09224,0.094671 6.5328591,6.5882322 0 0 1 0.09004,0.09689 6.5328591,6.5882322 0 0 1 0.08858,0.098368 6.5328591,6.5882322 0 0 1 0.08638,0.1005876 6.5328591,6.5882322 0 0 1 0.08419,0.1013271 6.5328591,6.5882322 0 0 1 0.08199,0.1042857 6.5328591,6.5882322 0 0 1 0.08053,0.1050253 6.5328591,6.5882322 0 0 1 0.0776,0.1065045 6.5328591,6.5882322 0 0 1 0.07613,0.1087231 6.5328591,6.5882322 0 0 1 0.07394,0.1102027 6.5328591,6.5882322 0 0 1 0.07101,0.1109418 6.5328591,6.5882322 0 0 1 0.06955,0.1131613 6.5328591,6.5882322 0 0 1 0.06735,0.1146401 6.5328591,6.5882322 0 0 1 0.06442,0.1153796 6.5328591,6.5882322 0 0 1 0.06222,0.1168591 6.5328591,6.5882322 0 0 1 0.06003,0.1183383 6.5328591,6.5882322 0 0 1 0.05783,0.1190778 6.5328591,6.5882322 0 0 1 0.0549,0.1205574 6.5328591,6.5882322 0 0 1 0.05344,0.1212965 6.5328591,6.5882322 0 0 1 0.05051,0.122776 6.5328591,6.5882322 0 0 1 0.04758,0.1235157 6.5328591,6.5882322 0 0 1 0.04539,0.1249947 6.5328591,6.5882322 0 0 1 0.04319,0.1257343 6.5328591,6.5882322 0 0 1 0.04026,0.1257343 6.5328591,6.5882322 0 0 1 0.03807,0.1272139 6.5328591,6.5882322 0 0 1 0.03514,0.1279534 6.5328591,6.5882322 0 0 1 0.03294,0.1286925 6.5328591,6.5882322 0 0 1 0.03002,0.1294326 6.5328591,6.5882322 0 0 1 0.02782,0.1294325 6.5328591,6.5882322 0 0 1 0.02489,0.1301721 6.5328591,6.5882322 0 0 1 0.0227,0.1309117 6.5328591,6.5882322 0 0 1 0.01976,0.1316516 6.5328591,6.5882322 0 0 1 0.01684,0.1316512 6.5328591,6.5882322 0 0 1 0.01464,0.1316512 6.5328591,6.5882322 0 0 1 0.01244,0.1323908 6.5328591,6.5882322 0 0 1 0.0088,0.1323912 6.5328591,6.5882322 0 0 1 0.0066,0.1323908 6.5328591,6.5882322 0 0 1 0.0044,0.1331307 6.5328591,6.5882322 0 0 1 0.0015,0.1323908 6.5328591,6.5882322 0 0 1 -0.0015,0.1257343 6.5328591,6.5882322 0 0 1 -0.0037,0.1331308 6.5328591,6.5882322 0 0 1 -0.0066,0.1323908 6.5328591,6.5882322 0 0 1 -0.0095,0.1323908 6.5328591,6.5882322 0 0 1 -0.01171,0.1323911 6.5328591,6.5882322 0 0 1 -0.01391,0.1316513 6.5328591,6.5882322 0 0 1 -0.01757,0.1316512 6.5328591,6.5882322 0 0 1 -0.01976,0.1316516 6.5328591,6.5882322 0 0 1 -0.02196,0.1309117 6.5328591,6.5882322 0 0 1 -0.02489,0.1301718 6.5328591,6.5882322 0 0 1 -0.02782,0.130173 6.5328591,6.5882322 0 0 1 -0.03002,0.1286929 6.5328591,6.5882322 0 0 1 -0.03221,0.128692 6.5328591,6.5882322 0 0 1 -0.03587,0.127953 6.5328591,6.5882322 0 0 1 -0.03734,0.127214 6.5328591,6.5882322 0 0 1 -0.04026,0.126474 6.5328591,6.5882322 0 0 1 -0.04319,0.125735 6.5328591,6.5882322 0 0 1 -0.04539,0.124255 6.5328591,6.5882322 0 0 1 -0.04758,0.123515 6.5328591,6.5882322 0 0 1 -0.05051,0.122776 6.5328591,6.5882322 0 0 1 -0.05271,0.122036 6.5328591,6.5882322 0 0 1 -0.0549,0.120558 6.5328591,6.5882322 0 0 1 -0.05783,0.119078 6.5328591,6.5882322 0 0 1 -0.06003,0.118338 6.5328591,6.5882322 0 0 1 -0.06223,0.116859 6.5328591,6.5882322 0 0 1 -0.06442,0.116119 6.5328591,6.5882322 0 0 1 -0.06662,0.113901 6.5328591,6.5882322 0 0 1 -0.06955,0.113161 6.5328591,6.5882322 0 0 1 -0.07101,0.111681 6.5328591,6.5882322 0 0 1 -0.07394,0.109464 6.5328591,6.5882322 0 0 1 -0.0754,0.108723 6.5328591,6.5882322 0 0 1 -0.07833,0.107244 6.5328591,6.5882322 0 0 1 -0.07979,0.105025 6.5328591,6.5882322 0 0 1 -0.08199,0.104286 6.5328591,6.5882322 0 0 1 -0.08419,0.102066 6.5328591,6.5882322 0 0 1 -0.08638,0.09985 6.5328591,6.5882322 0 0 1 -0.08858,0.09837 6.5328591,6.5882322 0 0 1 -0.09004,0.09689 6.5328591,6.5882322 0 0 1 -0.09224,0.09467 6.5328591,6.5882322 0 0 1 -0.0937,0.09319 6.5328591,6.5882322 0 0 1 -0.0959,0.09097 6.5328591,6.5882322 0 0 1 -0.09736,0.08949 6.5328591,6.5882322 0 0 1 -0.09956,0.08654 6.5328591,6.5882322 0 0 1 -0.101023,0.08506 6.5328591,6.5882322 0 0 1 -0.10322,0.08358 6.5328591,6.5882322 0 0 1 -0.103952,0.08062 6.5328591,6.5882322 0 0 1 -0.106148,0.0784 6.5328591,6.5882322 0 0 1 -0.107612,0.07692 6.5328591,6.5882322 0 0 1 -0.109077,0.07396 6.5328591,6.5882322 0 0 1 -0.11054,0.07248 6.5328591,6.5882322 0 0 1 -0.112004,0.06952 6.5328591,6.5882322 0 0 1 -0.113469,0.06804 6.5328591,6.5882322 0 0 1 -0.1142,0.06509 6.5328591,6.5882322 0 0 1 -0.115665,0.06287 6.5328591,6.5882322 0 0 1 -0.117861,0.06065 6.5328591,6.5882322 0 0 1 -0.117861,0.05769 6.5328591,6.5882322 0 0 1 -0.119325,0.05621 6.5328591,6.5882322 0 0 1 -0.120789,0.05325 6.5328591,6.5882322 0 0 1 -0.121521,0.05103 6.5328591,6.5882322 0 0 1 -0.122985,0.04807 6.5328591,6.5882322 0 0 1 -0.122985,0.04586 6.5328591,6.5882322 0 0 1 -0.12445,0.04364 6.5328591,6.5882322 0 0 1 -0.125181,0.04068 6.5328591,6.5882322 0 0 1 -0.126646,0.03772 6.5328591,6.5882322 0 0 1 -0.126645,0.03624 6.5328591,6.5882322 0 0 1 -0.127378,0.03254 6.5328591,6.5882322 0 0 1 -0.1281097,0.03106 6.5328591,6.5882322 0 0 1 -0.1288412,0.02737 6.5328591,6.5882322 0 0 1 -0.1288417,0.02589 6.5328591,6.5882322 0 0 1 -0.1303057,0.02219 6.5328591,6.5882322 0 0 1 -0.1295737,0.01997 6.5328591,6.5882322 0 0 1 -0.1310381,0.01775 6.5328591,6.5882322 0 0 1 -0.1303057,0.01479 6.5328591,6.5882322 0 0 1 -0.1310377,0.01183 6.5328591,6.5882322 0 0 1 -0.1317701,0.0089 6.5328591,6.5882322 0 0 1 -0.1310377,0.0067 6.5328591,6.5882322 0 0 1 -0.1317701,0.0044 6.5328591,6.5882322 0 0 1 -0.1317697,0.0015 6.5328591,6.5882322 0 0 1 -0.1251813,-0.0015 6.5328591,6.5882322 0 0 1 -0.1310381,-0.0037 6.5328591,6.5882322 0 0 1 -0.1317697,-0.0067 6.5328591,6.5882322 0 0 1 -0.1310381,-0.0096 6.5328591,6.5882322 0 0 1 -0.1317697,-0.01183 6.5328591,6.5882322 0 0 1 -0.1303058,-0.01405 6.5328591,6.5882322 0 0 1 -0.131038,-0.01775 6.5328591,6.5882322 0 0 1 -0.1295737,-0.01923 6.5328591,6.5882322 0 0 1 -0.1303057,-0.02293 6.5328591,6.5882322 0 0 1 -0.1288417,-0.02515 6.5328591,6.5882322 0 0 1 -0.1288417,-0.02737 6.5328591,6.5882322 0 0 1 -0.1281097,-0.03032 6.5328591,6.5882322 0 0 1 -0.1273777,-0.03328 6.5328591,6.5882322 0 0 1 -0.1273777,-0.0355 6.5328591,6.5882322 0 0 1 -0.1259132,-0.03846 6.5328591,6.5882322 0 0 1 -0.1251813,-0.04068 6.5328591,6.5882322 0 0 1 -0.1244497,-0.0429 6.5328591,6.5882322 0 0 1 -0.1237172,-0.04586 6.5328591,6.5882322 0 0 1 -0.1222533,-0.04808 6.5328591,6.5882322 0 0 1 -0.1222528,-0.05103 6.5328591,6.5882322 0 0 1 -0.1200572,-0.05251 6.5328591,6.5882322 0 0 1 -0.1200573,-0.05621 6.5328591,6.5882322 0 0 1 -0.1178608,-0.05769 6.5328591,6.5882322 0 0 1 -0.1178608,-0.06065 6.5328591,6.5882322 0 0 1 -0.1156648,-0.06287 6.5328591,6.5882322 0 0 1 -0.1149324,-0.06509 6.5328591,6.5882322 0 0 1 -0.1134684,-0.0673 6.5328591,6.5882322 0 0 1 -0.1120047,-0.06952 6.5328591,6.5882322 0 0 1 -0.11054,-0.07248 6.5328591,6.5882322 0 0 1 -0.1090764,-0.07396 6.5328591,6.5882322 0 0 1 -0.1076123,-0.07618 6.5328591,6.5882322 0 0 1 -0.1061479,-0.07914 6.5328591,6.5882322 0 0 1 -0.1039516,-0.08062 6.5328591,6.5882322 0 0 1 -0.1032199,-0.08284 6.5328591,6.5882322 0 0 1 -0.1010235,-0.08506 6.5328591,6.5882322 0 0 1 -0.099559,-0.08653 6.5328591,6.5882322 0 0 1 -0.097363,-0.08949 6.5328591,6.5882322 0 0 1 -0.095899,-0.09097 6.5328591,6.5882322 0 0 1 -0.094435,-0.09245 6.5328591,6.5882322 0 0 1 -0.092239,-0.09467 6.5328591,6.5882322 0 0 1 -0.090043,-0.09689 6.5328591,6.5882322 0 0 1 -0.088579,-0.09837 6.5328591,6.5882322 0 0 1 -0.086382,-0.100587 6.5328591,6.5882322 0 0 1 -0.084187,-0.101327 6.5328591,6.5882322 0 0 1 -0.08199,-0.104286 A 6.5328591,6.5882322 0 0 1 3.2456698,12.4266 6.5328591,6.5882322 0 0 1 3.1680718,12.320096 6.5328591,6.5882322 0 0 1 3.0919378,12.211372 6.5328591,6.5882322 0 0 1 3.0179998,12.10117 6.5328591,6.5882322 0 0 1 2.9469908,11.990228 6.5328591,6.5882322 0 0 1 2.8774458,11.877067 6.5328591,6.5882322 0 0 1 2.8100968,11.762427 6.5328591,6.5882322 0 0 1 2.7456758,11.647047 6.5328591,6.5882322 0 0 1 2.6834508,11.530188 6.5328591,6.5882322 0 0 1 2.6234218,11.41185 6.5328591,6.5882322 0 0 1 2.5655898,11.292772 6.5328591,6.5882322 0 0 1 2.5106858,11.172214 6.5328591,6.5882322 0 0 1 2.4572458,11.050918 6.5328591,6.5882322 0 0 1 2.4067149,10.928103 6.5328591,6.5882322 0 0 1 2.3591314,10.804587 6.5328591,6.5882322 0 0 1 2.313744,10.679592 6.5328591,6.5882322 0 0 1 2.2705527,10.553858 6.5328591,6.5882322 0 0 1 2.2302897,10.428124 6.5328591,6.5882322 0 0 1 2.1922228,10.30091 6.5328591,6.5882322 0 0 1 2.1570842,10.172957 6.5328591,6.5882322 0 0 1 2.1241417,10.044264 6.5328591,6.5882322 0 0 1 2.0941275,9.9148311 6.5328591,6.5882322 0 0 1 2.0663093,9.7853991 6.5328591,6.5882322 0 0 1 2.0414195,9.6552269 6.5328591,6.5882322 0 0 1 2.0187258,9.5243153 6.5328591,6.5882322 0 0 1 1.9989603,9.3926636 6.5328591,6.5882322 0 0 1 1.982123,9.2610124 6.5328591,6.5882322 0 0 1 1.9674819,9.1293612 6.5328591,6.5882322 0 0 1 1.955037,8.9969704 6.5328591,6.5882322 0 0 1 1.946257,8.8645792 6.5328591,6.5882322 0 0 1 1.939667,8.7321884 6.5328591,6.5882322 0 0 1 1.935277,8.5990577 6.5328591,6.5882322 0 0 1 1.933817,8.4666669 6.5328591,6.5882322 0 0 1 1.935287,8.3409326 6.5328591,6.5882322 0 0 1 1.938947,8.2078018 6.5328591,6.5882322 0 0 1 1.945537,8.075411 6.5328591,6.5882322 0 0 1 1.955057,7.9430202 6.5328591,6.5882322 0 0 1 1.96677,7.8106291 6.5328591,6.5882322 0 0 1 1.980679,7.6789778 6.5328591,6.5882322 0 0 1 1.998248,7.5473266 6.5328591,6.5882322 0 0 1 2.018013,7.415675 6.5328591,6.5882322 0 0 1 2.039975,7.2847633 6.5328591,6.5882322 0 0 1 2.064865,7.1545912 6.5328591,6.5882322 0 0 1 2.092683,7.0244192 6.5328591,6.5882322 0 0 1 2.122697,6.8957262 6.5328591,6.5882322 0 0 1 2.154907,6.7670336 6.5328591,6.5882322 0 0 1 2.1907614,6.6390802 6.5328591,6.5882322 0 0 1 2.228096,6.5118668 6.5328591,6.5882322 0 0 1 2.268359,6.3853925 6.5328591,6.5882322 0 0 1 2.3115503,6.2596582 6.5328591,6.5882322 0 0 1 2.3569377,6.135403 6.5328591,6.5882322 0 0 1 2.4045213,6.0118874 6.5328591,6.5882322 0 0 1 2.4550331,5.8891113 6.5328591,6.5882322 0 0 1 2.5077411,5.7670752 6.5328591,6.5882322 0 0 1 2.5626452,5.6465179 6.5328591,6.5882322 0 0 1 2.6204776,5.5274401 6.5328591,6.5882322 0 0 1 2.6805061,5.4091018 6.5328591,6.5882322 0 0 1 2.7427307,5.292243 6.5328591,6.5882322 0 0 1 2.8071516,5.1761235 6.5328591,6.5882322 0 0 1 2.8737686,5.062223 6.5328591,6.5882322 0 0 1 2.9433138,4.9490621 6.5328591,6.5882322 0 0 1 3.0143228,4.8373803 6.5328591,6.5882322 0 0 1 3.0882598,4.7279172 6.5328591,6.5882322 0 0 1 3.1636618,4.619194 a 6.5328591,6.5882322 0 0 1 0.07833,-0.107244 6.5328591,6.5882322 0 0 1 0.079794,-0.1050253 6.5328591,6.5882322 0 0 1 0.08199,-0.1042857 6.5328591,6.5882322 0 0 1 0.084186,-0.1020667 6.5328591,6.5882322 0 0 1 0.086383,-0.099848 6.5328591,6.5882322 0 0 1 0.088579,-0.098368 6.5328591,6.5882322 0 0 1 0.090043,-0.09689 6.5328591,6.5882322 0 0 1 0.092239,-0.094671 6.5328591,6.5882322 0 0 1 0.093703,-0.093192 6.5328591,6.5882322 0 0 1 0.095899,-0.090972 6.5328591,6.5882322 0 0 1 0.097363,-0.089493 6.5328591,6.5882322 0 0 1 0.09956,-0.086535 6.5328591,6.5882322 0 0 1 0.1010235,-0.085055 6.5328591,6.5882322 0 0 1 0.1032199,-0.083576 6.5328591,6.5882322 0 0 1 0.1039519,-0.080618 6.5328591,6.5882322 0 0 1 0.1061479,-0.078399 6.5328591,6.5882322 0 0 1 0.107612,-0.07692 6.5328591,6.5882322 0 0 1 0.1090763,-0.073961 6.5328591,6.5882322 0 0 1 0.1105404,-0.072482 6.5328591,6.5882322 0 0 1 0.1120044,-0.069524 6.5328591,6.5882322 0 0 1 0.1134684,-0.068044 6.5328591,6.5882322 0 0 1 0.1142007,-0.065086 6.5328591,6.5882322 0 0 1 0.1156645,-0.062867 6.5328591,6.5882322 0 0 1 0.1171288,-0.060648 6.5328591,6.5882322 0 0 1 0.1185932,-0.05769 6.5328591,6.5882322 0 0 1 0.1193248,-0.056211 6.5328591,6.5882322 0 0 1 0.1207889,-0.053252 6.5328591,6.5882322 0 0 1 0.1215212,-0.051033 6.5328591,6.5882322 0 0 1 0.1229852,-0.048075 6.5328591,6.5882322 0 0 1 0.1229853,-0.045856 6.5328591,6.5882322 0 0 1 0.1244493,-0.043637 6.5328591,6.5882322 0 0 1 0.1251816,-0.040679 6.5328591,6.5882322 0 0 1 0.1266457,-0.03772 6.5328591,6.5882322 0 0 1 0.1266453,-0.036241 6.5328591,6.5882322 0 0 1 0.1273776,-0.032543 6.5328591,6.5882322 0 0 1 0.1281097,-0.031064 6.5328591,6.5882322 0 0 1 0.1288417,-0.027366 6.5328591,6.5882322 0 0 1 0.1288417,-0.025886 6.5328591,6.5882322 0 0 1 0.1303057,-0.022189 6.5328591,6.5882322 0 0 1 0.1295737,-0.019969 6.5328591,6.5882322 0 0 1 0.1310381,-0.017751 6.5328591,6.5882322 0 0 1 0.1303057,-0.014792 6.5328591,6.5882322 0 0 1 0.1310377,-0.011834 6.5328591,6.5882322 0 0 1 0.1317701,-0.00888 6.5328591,6.5882322 0 0 1 0.1310377,-0.00666 6.5328591,6.5882322 0 0 1 0.1317701,-0.00444 6.5328591,6.5882322 0 0 1 0.1317671,-0.00148 z" />
  </g>
</svg>
