<?xml version="1.0" encoding="UTF-8" standalone="no"?>
<svg
   xmlns:dc="http://purl.org/dc/elements/1.1/"
   xmlns:cc="http://creativecommons.org/ns#"
   xmlns:rdf="http://www.w3.org/1999/02/22-rdf-syntax-ns#"
   xmlns:svg="http://www.w3.org/2000/svg"
   xmlns="http://www.w3.org/2000/svg"
   xmlns:sodipodi="http://sodipodi.sourceforge.net/DTD/sodipodi-0.dtd"
   xmlns:inkscape="http://www.inkscape.org/namespaces/inkscape"
   width="64"
   height="64"
   viewBox="0 0 16.933333 16.933333"
   version="1.1"
   id="svg8"
   inkscape:version="1.0.2 (e86c870879, 2021-01-15)"
   sodipodi:docname="circle_full.svg">
  <defs
     id="defs2" />
  <sodipodi:namedview
     id="base"
     pagecolor="#ffffff"
     bordercolor="#666666"
     borderopacity="1.0"
     inkscape:pageopacity="0.0"
     inkscape:pageshadow="2"
     inkscape:zoom="2.8"
     inkscape:cx="-50.518379"
     inkscape:cy="86.049023"
     inkscape:document-units="mm"
     inkscape:current-layer="layer1"
     inkscape:document-rotation="0"
     showgrid="false"
     units="px"
     inkscape:window-width="1920"
     inkscape:window-height="1005"
     inkscape:window-x="0"
     inkscape:window-y="0"
     inkscape:window-maximized="1" />
  <metadata
     id="metadata5">
    <rdf:RDF>
      <cc:Work
         rdf:about="">
        <dc:format>image/svg+xml</dc:format>
        <dc:type
           rdf:resource="http://purl.org/dc/dcmitype/StillImage" />
        <dc:title></dc:title>
      </cc:Work>
    </rdf:RDF>
  </metadata>
  <g
     inkscape:label="Layer 1"
     inkscape:groupmode="layer"
     id="layer1">
    <path
       id="path842"
       style="opacity:0.991;fill:#b3b3b1;fill-opacity:1;stroke:none;stroke-width:0;stroke-miterlimit:4;stroke-dasharray:none"
       d="M 8.3404732,0.2723348 A 8.320349,8.3197671 0 0 0 0.02047289,8.5921573 8.320349,8.3197671 0 0 0 8.3404732,16.91198 8.320349,8.3197671 0 0 0 16.660473,8.5921573 8.320349,8.3197671 0 0 0 8.3404732,0.2723348 Z m -0.013416,2.7716235 a 5.5386624,5.5485027 0 0 1 0.013416,0 5.5386624,5.5485027 0 0 1 0.1186353,7.063e-4 5.5386624,5.5485027 0 0 1 0.1193413,0.00425 5.5386624,5.5485027 0 0 1 0.1186352,0.00636 5.5386624,5.5485027 0 0 1 0.1186351,0.0092 5.5386624,5.5485027 0 0 1 0.1186353,0.011319 5.5386624,5.5485027 0 0 1 0.1179291,0.014148 5.5386624,5.5485027 0 0 1 0.117929,0.01627 5.5386624,5.5485027 0 0 1 0.1172231,0.0191 5.5386624,5.5485027 0 0 1 0.1172226,0.021929 5.5386624,5.5485027 0 0 1 0.1165168,0.024051 5.5386624,5.5485027 0 0 1 0.1158108,0.026882 5.5386624,5.5485027 0 0 1 0.1158103,0.029004 5.5386624,5.5485027 0 0 1 0.1143983,0.031833 5.5386624,5.5485027 0 0 1 0.114399,0.033955 5.5386624,5.5485027 0 0 1 0.1129846,0.036078 5.5386624,5.5485027 0 0 1 0.11228,0.038908 5.5386624,5.5485027 0 0 1 0.111573,0.041737 5.5386624,5.5485027 0 0 1 0.110868,0.043859 5.5386624,5.5485027 0 0 1 0.110161,0.045981 5.5386624,5.5485027 0 0 1 0.108044,0.048811 5.5386624,5.5485027 0 0 1 0.108042,0.050226 5.5386624,5.5485027 0 0 1 0.10663,0.053762 5.5386624,5.5485027 0 0 1 0.105219,0.055178 5.5386624,5.5485027 0 0 1 0.103806,0.0573 5.5386624,5.5485027 0 0 1 0.103099,0.06013 5.5386624,5.5485027 0 0 1 0.101687,0.062252 5.5386624,5.5485027 0 0 1 0.100276,0.064374 5.5386624,5.5485027 0 0 1 0.09887,0.06579 5.5386624,5.5485027 0 0 1 0.09744,0.068618 5.5386624,5.5485027 0 0 1 0.09534,0.07074 5.5386624,5.5485027 0 0 1 0.09463,0.072863 5.5386624,5.5485027 0 0 1 0.0925,0.074278 5.5386624,5.5485027 0 0 1 0.0918,0.077107 5.5386624,5.5485027 0 0 1 0.08898,0.078522 5.5386624,5.5485027 0 0 1 0.08827,0.080644 5.5386624,5.5485027 0 0 1 0.08545,0.082059 5.5386624,5.5485027 0 0 1 0.08475,0.084182 5.5386624,5.5485027 0 0 1 0.08191,0.086304 5.5386624,5.5485027 0 0 1 0.08051,0.087718 5.5386624,5.5485027 0 0 1 0.0791,0.089133 5.5386624,5.5485027 0 0 1 0.07626,0.091256 5.5386624,5.5485027 0 0 1 0.07485,0.09267 5.5386624,5.5485027 0 0 1 0.07273,0.094085 5.5386624,5.5485027 0 0 1 0.07061,0.096207 5.5386624,5.5485027 0 0 1 0.06921,0.096915 5.5386624,5.5485027 0 0 1 0.06638,0.099038 5.5386624,5.5485027 0 0 1 0.06427,0.1004516 5.5386624,5.5485027 0 0 1 0.06214,0.1018667 5.5386624,5.5485027 0 0 1 0.06002,0.1025741 5.5386624,5.5485027 0 0 1 0.0579,0.1039891 5.5386624,5.5485027 0 0 1 0.05579,0.1054039 5.5386624,5.5485027 0 0 1 0.05297,0.1068183 5.5386624,5.5485027 0 0 1 0.05084,0.1075259 5.5386624,5.5485027 0 0 1 0.04874,0.1089412 5.5386624,5.5485027 0 0 1 0.04661,0.109648 5.5386624,5.5485027 0 0 1 0.04379,0.1110631 5.5386624,5.5485027 0 0 1 0.04166,0.1117702 5.5386624,5.5485027 0 0 1 0.03954,0.1124778 5.5386624,5.5485027 0 0 1 0.03672,0.1131854 5.5386624,5.5485027 0 0 1 0.03389,0.1138925 5.5386624,5.5485027 0 0 1 0.03178,0.1153077 5.5386624,5.5485027 0 0 1 0.02966,0.1153073 5.5386624,5.5485027 0 0 1 0.02683,0.1160151 5.5386624,5.5485027 0 0 1 0.02401,0.116722 5.5386624,5.5485027 0 0 1 0.02189,0.1174298 5.5386624,5.5485027 0 0 1 0.01978,0.1174297 5.5386624,5.5485027 0 0 1 0.01695,0.1181372 5.5386624,5.5485027 0 0 1 0.01413,0.1181368 5.5386624,5.5485027 0 0 1 0.012,0.1188448 5.5386624,5.5485027 0 0 1 0.0092,0.1188442 5.5386624,5.5485027 0 0 1 0.0064,0.1188448 5.5386624,5.5485027 0 0 1 0.0042,0.1188442 5.5386624,5.5485027 0 0 1 0.0014,0.1195522 5.5386624,5.5485027 0 0 1 0,0.013441 5.5386624,5.5485027 0 0 1 -7.24e-4,0.1188445 5.5386624,5.5485027 0 0 1 -0.0042,0.1195518 5.5386624,5.5485027 0 0 1 -0.0064,0.1188445 5.5386624,5.5485027 0 0 1 -0.0092,0.1188445 5.5386624,5.5485027 0 0 1 -0.01129,0.1188445 5.5386624,5.5485027 0 0 1 -0.01413,0.1181372 5.5386624,5.5485027 0 0 1 -0.01624,0.1181371 5.5386624,5.5485027 0 0 1 -0.01907,0.1174298 5.5386624,5.5485027 0 0 1 -0.02189,0.1174295 5.5386624,5.5485027 0 0 1 -0.02401,0.1167224 5.5386624,5.5485027 0 0 1 -0.02684,0.116015 5.5386624,5.5485027 0 0 1 -0.02895,0.116015 5.5386624,5.5485027 0 0 1 -0.03178,0.114601 5.5386624,5.5485027 0 0 1 -0.0339,0.114599 5.5386624,5.5485027 0 0 1 -0.03601,0.113186 5.5386624,5.5485027 0 0 1 -0.03954,0.112477 5.5386624,5.5485027 0 0 1 -0.04095,0.111771 5.5386624,5.5485027 0 0 1 -0.04378,0.111063 5.5386624,5.5485027 0 0 1 -0.04589,0.110356 5.5386624,5.5485027 0 0 1 -0.04874,0.108233 5.5386624,5.5485027 0 0 1 -0.05085,0.108233 5.5386624,5.5485027 0 0 1 -0.05296,0.106819 5.5386624,5.5485027 0 0 1 -0.05508,0.105404 5.5386624,5.5485027 0 0 1 -0.0572,0.103989 5.5386624,5.5485027 0 0 1 -0.06002,0.103281 5.5386624,5.5485027 0 0 1 -0.06214,0.101867 5.5386624,5.5485027 0 0 1 -0.06427,0.100452 5.5386624,5.5485027 0 0 1 -0.06637,0.09904 5.5386624,5.5485027 0 0 1 -0.06779,0.09762 5.5386624,5.5485027 0 0 1 -0.07061,0.0962 5.5386624,5.5485027 0 0 1 -0.07273,0.09408 5.5386624,5.5485027 0 0 1 -0.07415,0.09338 5.5386624,5.5485027 0 0 1 -0.07696,0.09126 5.5386624,5.5485027 0 0 1 -0.0784,0.08913 5.5386624,5.5485027 0 0 1 -0.0805,0.08843 5.5386624,5.5485027 0 0 1 -0.08191,0.0856 5.5386624,5.5485027 0 0 1 -0.08404,0.08488 5.5386624,5.5485027 0 0 1 -0.08615,0.08206 5.5386624,5.5485027 0 0 1 -0.08756,0.08135 5.5386624,5.5485027 0 0 1 -0.08898,0.07852 5.5386624,5.5485027 0 0 1 -0.0911,0.07711 5.5386624,5.5485027 0 0 1 -0.0925,0.07428 5.5386624,5.5485027 0 0 1 -0.09392,0.07286 5.5386624,5.5485027 0 0 1 -0.09603,0.07145 5.5386624,5.5485027 0 0 1 -0.09744,0.06862 5.5386624,5.5485027 0 0 1 -0.09815,0.0665 5.5386624,5.5485027 0 0 1 -0.100276,0.06437 5.5386624,5.5485027 0 0 1 -0.101686,0.06225 5.5386624,5.5485027 0 0 1 -0.102393,0.06012 5.5386624,5.5485027 0 0 1 -0.103807,0.05801 5.5386624,5.5485027 0 0 1 -0.105218,0.05589 5.5386624,5.5485027 0 0 1 -0.10663,0.05305 5.5386624,5.5485027 0 0 1 -0.107338,0.05093 5.5386624,5.5485027 0 0 1 -0.108748,0.04881 5.5386624,5.5485027 0 0 1 -0.109454,0.04669 5.5386624,5.5485027 0 0 1 -0.110869,0.04386 5.5386624,5.5485027 0 0 1 -0.111573,0.04174 5.5386624,5.5485027 0 0 1 -0.112279,0.03962 5.5386624,5.5485027 0 0 1 -0.1129868,0.03679 5.5386624,5.5485027 0 0 1 -0.1136924,0.03396 5.5386624,5.5485027 0 0 1 -0.1151038,0.03183 5.5386624,5.5485027 0 0 1 -0.1151043,0.02971 5.5386624,5.5485027 0 0 1 -0.1158108,0.02688 5.5386624,5.5485027 0 0 1 -0.1165165,0.02476 5.5386624,5.5485027 0 0 1 -0.1172229,0.02193 5.5386624,5.5485027 0 0 1 -0.1172232,0.0191 5.5386624,5.5485027 0 0 1 -0.1179289,0.01697 5.5386624,5.5485027 0 0 1 -0.1179288,0.01415 5.5386624,5.5485027 0 0 1 -0.1186356,0.01202 5.5386624,5.5485027 0 0 1 -0.1186348,0.0092 5.5386624,5.5485027 0 0 1 -0.1186356,0.0064 5.5386624,5.5485027 0 0 1 -0.1186348,0.0042 5.5386624,5.5485027 0 0 1 -0.1193418,0.0014 5.5386624,5.5485027 0 0 1 -0.013416,0 5.5386624,5.5485027 0 0 1 -0.1186354,-7.24e-4 5.5386624,5.5485027 0 0 1 -0.1193412,-0.0042 5.5386624,5.5485027 0 0 1 -0.1186354,-0.0064 5.5386624,5.5485027 0 0 1 -0.1186351,-0.0092 5.5386624,5.5485027 0 0 1 -0.1186352,-0.01132 5.5386624,5.5485027 0 0 1 -0.1179292,-0.01415 5.5386624,5.5485027 0 0 1 -0.117929,-0.01627 5.5386624,5.5485027 0 0 1 -0.117223,-0.0191 5.5386624,5.5485027 0 0 1 -0.1172226,-0.02193 5.5386624,5.5485027 0 0 1 -0.1165169,-0.02406 5.5386624,5.5485027 0 0 1 -0.1158107,-0.02688 5.5386624,5.5485027 0 0 1 -0.1158103,-0.029 5.5386624,5.5485027 0 0 1 -0.1143982,-0.03183 5.5386624,5.5485027 0 0 1 -0.1143982,-0.03396 5.5386624,5.5485027 0 0 1 -0.1129859,-0.03608 5.5386624,5.5485027 0 0 1 -0.1122591,-0.03889 5.5386624,5.5485027 0 0 1 -0.1115738,-0.04174 5.5386624,5.5485027 0 0 1 -0.1108675,-0.04386 5.5386624,5.5485027 0 0 1 -0.1101611,-0.04598 5.5386624,5.5485027 0 0 1 -0.1080428,-0.04881 5.5386624,5.5485027 0 0 1 -0.108043,-0.05023 5.5386624,5.5485027 0 0 1 -0.1066302,-0.05376 5.5386624,5.5485027 0 0 1 -0.1052182,-0.05518 5.5386624,5.5485027 0 0 1 -0.1038058,-0.0573 5.5386624,5.5485027 0 0 1 -0.1030998,-0.06013 5.5386624,5.5485027 0 0 1 -0.1016875,-0.06225 5.5386624,5.5485027 0 0 1 -0.1002747,-0.06437 5.5386624,5.5485027 0 0 1 -0.098862,-0.06579 5.5386624,5.5485027 0 0 1 -0.097449,-0.06862 5.5386624,5.5485027 0 0 1 -0.095332,-0.07074 5.5386624,5.5485027 0 0 1 -0.094627,-0.07286 5.5386624,5.5485027 0 0 1 -0.092508,-0.07428 5.5386624,5.5485027 0 0 1 -0.091801,-0.07711 5.5386624,5.5485027 0 0 1 -0.088978,-0.07852 5.5386624,5.5485027 0 0 1 -0.08827,-0.08065 5.5386624,5.5485027 0 0 1 -0.085446,-0.08206 5.5386624,5.5485027 0 0 1 -0.084739,-0.08418 5.5386624,5.5485027 0 0 1 -0.081914,-0.08631 5.5386624,5.5485027 0 0 1 -0.080503,-0.08772 5.5386624,5.5485027 0 0 1 -0.079091,-0.08913 5.5386624,5.5485027 0 0 1 -0.076265,-0.09126 5.5386624,5.5485027 0 0 1 -0.074853,-0.09267 5.5386624,5.5485027 0 0 1 -0.072736,-0.09408 5.5386624,5.5485027 0 0 1 -0.070616,-0.0962 5.5386624,5.5485027 0 0 1 -0.069204,-0.09692 5.5386624,5.5485027 0 0 1 -0.066379,-0.09904 A 5.5386624,5.5485027 0 0 1 3.6508979,11.544117 5.5386624,5.5485027 0 0 1 3.588756,11.44225 5.5386624,5.5485027 0 0 1 3.5287323,11.339676 5.5386624,5.5485027 0 0 1 3.4708273,11.235687 5.5386624,5.5485027 0 0 1 3.4150402,11.130283 5.5386624,5.5485027 0 0 1 3.3620786,11.023465 5.5386624,5.5485027 0 0 1 3.3112348,10.915938 5.5386624,5.5485027 0 0 1 3.2625098,10.806998 5.5386624,5.5485027 0 0 1 3.2159039,10.69735 5.5386624,5.5485027 0 0 1 3.1721214,10.586287 5.5386624,5.5485027 0 0 1 3.1304576,10.474516 5.5386624,5.5485027 0 0 1 3.0909129,10.362038 5.5386624,5.5485027 0 0 1 3.0541886,10.248886 5.5386624,5.5485027 0 0 1 3.0202489,10.135014 5.5386624,5.5485027 0 0 1 2.9884716,10.019706 5.5386624,5.5485027 0 0 1 2.9588128,9.9043987 5.5386624,5.5485027 0 0 1 2.9319787,9.7883837 5.5386624,5.5485027 0 0 1 2.9079693,9.6716615 5.5386624,5.5485027 0 0 1 2.8860782,9.5542318 5.5386624,5.5485027 0 0 1 2.8663056,9.436802 5.5386624,5.5485027 0 0 1 2.8493578,9.3186648 5.5386624,5.5485027 0 0 1 2.8352343,9.2005281 5.5386624,5.5485027 0 0 1 2.8232298,9.0816833 5.5386624,5.5485027 0 0 1 2.8140517,8.9628391 5.5386624,5.5485027 0 0 1 2.8076991,8.8439943 5.5386624,5.5485027 0 0 1 2.8034608,8.7251501 5.5386624,5.5485027 0 0 1 2.802048,8.6055979 a 5.5386624,5.5485027 0 0 1 0,-0.013441 A 5.5386624,5.5485027 0 0 1 2.802753,8.4733124 5.5386624,5.5485027 0 0 1 2.806993,8.3537605 5.5386624,5.5485027 0 0 1 2.813343,8.234916 5.5386624,5.5485027 0 0 1 2.822523,8.1160715 5.5386624,5.5485027 0 0 1 2.833821,7.997227 5.5386624,5.5485027 0 0 1 2.847945,7.8790899 5.5386624,5.5485027 0 0 1 2.864187,7.7609527 5.5386624,5.5485027 0 0 1 2.883253,7.643523 5.5386624,5.5485027 0 0 1 2.905144,7.5260936 5.5386624,5.5485027 0 0 1 2.929154,7.4093711 5.5386624,5.5485027 0 0 1 2.955988,7.2933561 5.5386624,5.5485027 0 0 1 2.98494,7.1773414 5.5386624,5.5485027 0 0 1 3.016718,7.0627415 5.5386624,5.5485027 0 0 1 3.050614,6.9481415 5.5386624,5.5485027 0 0 1 3.086629,6.8349563 5.5386624,5.5485027 0 0 1 3.126174,6.7224784 5.5386624,5.5485027 0 0 1 3.167131,6.6107078 5.5386624,5.5485027 0 0 1 3.210913,6.4996447 5.5386624,5.5485027 0 0 1 3.256815,6.3892893 5.5386624,5.5485027 0 0 1 3.30554,6.2810559 5.5386624,5.5485027 0 0 1 3.356383,6.1728223 5.5386624,5.5485027 0 0 1 3.409344,6.066004 5.5386624,5.5485027 0 0 1 3.464425,5.9606001 5.5386624,5.5485027 0 0 1 3.521625,5.8566113 5.5386624,5.5485027 0 0 1 3.581648,5.7533295 5.5386624,5.5485027 0 0 1 3.64379,5.6514628 5.5386624,5.5485027 0 0 1 3.708051,5.5510112 5.5386624,5.5485027 0 0 1 3.774431,5.4519732 5.5386624,5.5485027 0 0 1 3.842223,5.3543512 5.5386624,5.5485027 0 0 1 3.912839,5.2581442 5.5386624,5.5485027 0 0 1 3.985573,5.1640592 5.5386624,5.5485027 0 0 1 4.05972,5.0706812 5.5386624,5.5485027 0 0 1 4.136692,4.9794252 5.5386624,5.5485027 0 0 1 4.215076,4.8902922 5.5386624,5.5485027 0 0 1 4.295579,4.8018662 5.5386624,5.5485027 0 0 1 4.377493,4.7162692 5.5386624,5.5485027 0 0 1 4.461526,4.6313802 5.5386624,5.5485027 0 0 1 4.547678,4.5493212 5.5386624,5.5485027 0 0 1 4.635241,4.4679682 5.5386624,5.5485027 0 0 1 4.724219,4.3894462 5.5386624,5.5485027 0 0 1 4.815313,4.3123392 5.5386624,5.5485027 0 0 1 4.90782,4.2380612 5.5386624,5.5485027 0 0 1 5.001739,4.1651982 5.5386624,5.5485027 0 0 1 5.097777,4.0937502 5.5386624,5.5485027 0 0 1 5.195226,4.0251312 5.5386624,5.5485027 0 0 1 5.293383,3.9586352 5.5386624,5.5485027 0 0 1 5.3936577,3.8942612 5.5386624,5.5485027 0 0 1 5.4953451,3.8320092 5.5386624,5.5485027 0 0 1 5.5977385,3.7718792 5.5386624,5.5485027 0 0 1 5.7015445,3.7138712 5.5386624,5.5485027 0 0 1 5.8067628,3.6579852 5.5386624,5.5485027 0 0 1 5.913393,3.6049302 5.5386624,5.5485027 0 0 1 6.0207295,3.5539972 5.5386624,5.5485027 0 0 1 6.1294787,3.5051862 5.5386624,5.5485027 0 0 1 6.2389338,3.4584972 5.5386624,5.5485027 0 0 1 6.3498013,3.4146382 5.5386624,5.5485027 0 0 1 6.4613747,3.3729012 5.5386624,5.5485027 0 0 1 6.5736546,3.3332862 5.5386624,5.5485027 0 0 1 6.6866403,3.2965012 5.5386624,5.5485027 0 0 1 6.8003324,3.2625462 5.5386624,5.5485027 0 0 1 6.915437,3.2307132 5.5386624,5.5485027 0 0 1 7.0305413,3.2010022 5.5386624,5.5485027 0 0 1 7.146352,3.1741202 a 5.5386624,5.5485027 0 0 1 0.1165165,-0.024759 5.5386624,5.5485027 0 0 1 0.1172229,-0.02193 5.5386624,5.5485027 0 0 1 0.117223,-0.0191 5.5386624,5.5485027 0 0 1 0.1179291,-0.016978 5.5386624,5.5485027 0 0 1 0.1179288,-0.014148 5.5386624,5.5485027 0 0 1 0.1186355,-0.012026 5.5386624,5.5485027 0 0 1 0.118635,-0.0092 5.5386624,5.5485027 0 0 1 0.1186354,-0.00636 5.5386624,5.5485027 0 0 1 0.118635,-0.00425 5.5386624,5.5485027 0 0 1 0.1193418,-0.00141 z" />
  </g>
</svg>
